<svg width="1148" height="336" viewBox="0 0 1148 336" fill="none" xmlns="http://www.w3.org/2000/svg">
<path d="M347.818 90.2044C364.406 90.2044 378.902 93.4175 391.306 99.8436C403.859 106.12 413.499 115.236 420.224 127.192C427.098 138.998 430.535 152.822 430.535 168.663C430.535 184.504 427.098 198.253 420.224 209.909C413.499 221.566 403.859 230.533 391.306 236.809C378.902 242.936 364.406 246 347.818 246H296.932V90.2044H347.818ZM347.818 225.153C366.05 225.153 380.023 220.221 389.737 210.358C399.451 200.494 404.308 186.596 404.308 168.663C404.308 150.58 399.451 136.457 389.737 126.295C380.023 116.133 366.05 111.052 347.818 111.052H322.487V225.153H347.818ZM571.308 90.2044L519.75 189.51V246H494.195V189.51L442.413 90.2044H470.882L506.972 166.645L543.063 90.2044H571.308ZM719.587 246H694.032L617.143 129.658V246H591.588V89.9803H617.143L694.032 206.098V89.9803H719.587V246ZM804.48 247.569C794.019 247.569 784.604 245.776 776.235 242.189C767.866 238.453 761.29 233.223 756.508 226.498C751.726 219.773 749.335 211.927 749.335 202.96H776.683C777.281 209.685 779.896 215.215 784.529 219.548C789.311 223.882 795.961 226.049 804.48 226.049C813.297 226.049 820.171 223.957 825.103 219.773C830.035 215.439 832.501 209.909 832.501 203.184C832.501 197.954 830.931 193.695 827.793 190.407C824.804 187.119 820.993 184.578 816.361 182.785C811.877 180.992 805.601 179.049 797.531 176.957C787.368 174.267 779.074 171.577 772.648 168.887C766.371 166.047 760.991 161.714 756.508 155.885C752.025 150.057 749.783 142.286 749.783 132.572C749.783 123.605 752.025 115.759 756.508 109.034C760.991 102.309 767.268 97.1536 775.338 93.5669C783.408 89.9803 792.748 88.1869 803.359 88.1869C818.453 88.1869 830.782 91.9978 840.346 99.6194C850.06 107.092 855.44 117.403 856.486 130.554H828.241C827.793 124.876 825.103 120.019 820.171 115.984C815.24 111.949 808.739 109.931 800.669 109.931C793.346 109.931 787.368 111.799 782.736 115.535C778.103 119.271 775.786 124.651 775.786 131.675C775.786 136.457 777.206 140.418 780.046 143.556C783.035 146.545 786.771 148.936 791.254 150.729C795.737 152.523 801.864 154.465 809.636 156.558C819.947 159.397 828.316 162.237 834.742 165.076C841.318 167.915 846.847 172.324 851.331 178.302C855.963 184.13 858.28 191.976 858.28 201.839C858.28 209.76 856.113 217.232 851.779 224.256C847.594 231.28 841.392 236.959 833.173 241.293C825.103 245.477 815.539 247.569 804.48 247.569ZM959.494 247.569C944.998 247.569 931.623 244.207 919.369 237.482C907.264 230.607 897.624 221.118 890.451 209.013C883.427 196.758 879.915 183.009 879.915 167.766C879.915 152.523 883.427 138.849 890.451 126.744C897.624 114.639 907.264 105.224 919.369 98.4986C931.623 91.6242 944.998 88.1869 959.494 88.1869C974.14 88.1869 987.515 91.6242 999.62 98.4986C1011.87 105.224 1021.51 114.639 1028.54 126.744C1035.56 138.849 1039.07 152.523 1039.07 167.766C1039.07 183.009 1035.56 196.758 1028.54 209.013C1021.51 221.118 1011.87 230.607 999.62 237.482C987.515 244.207 974.14 247.569 959.494 247.569ZM959.494 225.377C969.806 225.377 978.997 223.06 987.067 218.428C995.137 213.645 1001.41 206.92 1005.9 198.253C1010.53 189.435 1012.85 179.273 1012.85 167.766C1012.85 156.259 1010.53 146.171 1005.9 137.504C1001.41 128.836 995.137 122.186 987.067 117.553C978.997 112.92 969.806 110.604 959.494 110.604C949.183 110.604 939.992 112.92 931.922 117.553C923.852 122.186 917.5 128.836 912.868 137.504C908.384 146.171 906.143 156.259 906.143 167.766C906.143 179.273 908.384 189.435 912.868 198.253C917.5 206.92 923.852 213.645 931.922 218.428C939.992 223.06 949.183 225.377 959.494 225.377ZM1089.78 225.377H1142.45V246H1064.22V90.2044H1089.78V225.377Z" fill="black"/>
<path fill-rule="evenodd" clip-rule="evenodd" d="M0.114775 64.7224H103.819C161.275 64.7224 207.784 111.219 207.784 168.688C207.784 193.367 199.125 217.076 183.104 235.859C163.408 258.952 134.5 272.653 104.08 272.653H0.114775C0.114775 261.704 0.114775 264.148 0.114775 253.199C0.114775 222.558 -3.41404 215.406 28.6619 215.406C53.7142 215.406 78.7661 215.406 103.819 215.406C129.469 215.406 150.275 194.438 150.275 168.818C150.275 143.199 129.469 122.231 103.819 122.231C88.3329 122.231 72.8475 122.231 57.362 122.231C57.362 132.523 57.362 127.377 57.362 137.668C57.362 185.144 53.4024 186.94 0.114913 186.94L0.114775 64.7224Z" fill="#9F9F9F"/>
<mask id="mask0_131_34" style="mask-type:luminance" maskUnits="userSpaceOnUse" x="0" y="64" width="117" height="123">
<path d="M57.3619 122.231C57.3619 122.231 52.4847 68.7624 116.349 65.4685C112.241 64.976 108.06 64.7225 103.819 64.7225H0.114746V186.94C53.4022 186.94 57.3619 185.145 57.3619 137.668C57.3619 127.377 57.3619 132.523 57.3619 122.231Z" fill="white"/>
</mask>
<g mask="url(#mask0_131_34)">
<path d="M116.349 64.723H0.114746V186.941H116.349V64.723Z" fill="url(#paint0_linear_131_34)"/>
</g>
<mask id="mask1_131_34" style="mask-type:luminance" maskUnits="userSpaceOnUse" x="57" y="65" width="147" height="74">
<path d="M116.349 65.4682C52.4848 68.762 57.362 122.231 57.362 122.231C70.5865 122.231 83.811 122.231 97.0355 122.231C97.0355 122.231 191.724 117.573 203.238 138.159C191.39 99.4664 157.599 70.413 116.349 65.4682Z" fill="white"/>
</mask>
<g mask="url(#mask1_131_34)">
<path d="M203.238 65.4681H52.4849V138.159H203.238V65.4681Z" fill="url(#paint1_linear_131_34)"/>
</g>
<mask id="mask2_131_34" style="mask-type:luminance" maskUnits="userSpaceOnUse" x="0" y="204" width="202" height="69">
<path d="M201.452 204.484C193.791 218.502 103.819 215.406 103.819 215.406C78.7661 215.406 53.7142 215.406 28.6619 215.406C-3.41391 215.406 0.114764 222.559 0.114764 253.2C0.114764 264.149 0.114764 261.705 0.114764 272.653H104.08C134.5 272.653 163.408 258.953 183.104 235.86C191.115 226.468 197.285 215.844 201.452 204.484Z" fill="white"/>
</mask>
<g mask="url(#mask2_131_34)">
<path d="M201.453 204.484H-3.41357V272.653H201.453V204.484Z" fill="url(#paint2_linear_131_34)"/>
</g>
<mask id="mask3_131_34" style="mask-type:luminance" maskUnits="userSpaceOnUse" x="97" y="121" width="111" height="95">
<path d="M103.818 215.406C103.818 215.406 193.791 218.502 201.452 204.483C205.619 193.124 207.783 181.027 207.783 168.688C207.783 158.062 206.193 147.811 203.238 138.159C191.724 117.574 97.0352 122.232 97.0352 122.232C99.2961 122.232 101.557 122.232 103.818 122.232C129.468 122.232 150.275 143.2 150.275 168.819C150.275 194.438 129.468 215.406 103.818 215.406Z" fill="white"/>
</mask>
<g mask="url(#mask3_131_34)">
<path d="M207.782 117.574H97.0342V218.502H207.782V117.574Z" fill="url(#paint3_linear_131_34)"/>
</g>
<path fill-rule="evenodd" clip-rule="evenodd" d="M80.593 122.231C67.9327 84.8162 116.348 65.4682 116.348 65.4682C52.4844 68.762 57.3615 122.231 57.3615 122.231C65.1055 122.231 72.8493 122.231 80.593 122.231Z" fill="#102770"/>
<path fill-rule="evenodd" clip-rule="evenodd" d="M146.622 150.728C169.159 129.15 203.238 138.159 203.238 138.159C191.724 117.574 97.0352 122.232 97.0352 122.232C99.2961 122.232 101.557 122.232 103.818 122.232C123.055 122.232 139.567 134.025 146.622 150.728Z" fill="#102770"/>
<path fill-rule="evenodd" clip-rule="evenodd" d="M201.453 204.483C141.546 209.074 147.069 186.182 147.845 183.682C141.645 202.073 124.272 215.405 103.819 215.405C103.819 215.405 193.792 218.501 201.453 204.483Z" fill="#102770"/>
<defs>
<linearGradient id="paint0_linear_131_34" x1="55.604" y1="173.63" x2="61.7845" y2="61.2039" gradientUnits="userSpaceOnUse">
<stop stop-color="#1296DF"/>
<stop offset="1" stop-color="#47EADF"/>
</linearGradient>
<linearGradient id="paint1_linear_131_34" x1="174.034" y1="83.7117" x2="78.6612" y2="121.102" gradientUnits="userSpaceOnUse">
<stop stop-color="#1296DF"/>
<stop offset="1" stop-color="#500AC1"/>
</linearGradient>
<linearGradient id="paint2_linear_131_34" x1="152.977" y1="207.436" x2="39.0483" y2="273.17" gradientUnits="userSpaceOnUse">
<stop stop-color="#1296DF"/>
<stop offset="1" stop-color="#500AC1"/>
</linearGradient>
<linearGradient id="paint3_linear_131_34" x1="263.95" y1="161.829" x2="138.4" y2="168.818" gradientUnits="userSpaceOnUse">
<stop stop-color="#1296DF"/>
<stop offset="1" stop-color="#500AC1"/>
</linearGradient>
</defs>
</svg>
